<?xml version="1.0" encoding="UTF-8"?>
<svg xmlns="http://www.w3.org/2000/svg" viewBox="0 0 181.41 138.85">
  <path d="M.95,127.19l12.29-7.53,30.43-19.39c9.47-6.04,18.17-12.71,26.03-21.22-13.36-.99-24.62-4.45-31.7-16.3-1.38-2.68-3.18-4.7-5.78-6.27-8.91-5.37-12.52-10.54-15.4-20.38-.64-2.19-1.47-4.01-2.96-5.78C7.87,23.2,4.94,14.22,5.79,4.89c.03-.34.43-1.07.71-1.2s.99.02,1.32.23c19.42,12.62,37.21,16.39,59.8,19.17l13.43,1.65c9.68,1.19,18.76,4.71,26.45,10.67,4.82,3.73,8.22,8.42,11.09,13.77-.89-6.16-4.04-11.16-8.11-15.82,4.18-3.19,7.3-6.97,9.86-11.37l4.06-7c6.54-10.41,16.13-16.29,28.66-14.75,5.21.64,9.79,2.88,12.98,7.14,1.03,1.38,2.42,2.22,4.15,2.5,4.54.74,10.03,3.28,11.22,7.7l-6.32,1.25c-8.54,1.69-13.82,12.47-14.37,21.1l-.66,10.48c-1.2,18.98-6.05,35.87-21.08,48.44-14.18,11.86-29.35,16.06-47.76,16-18.91-.06-20.17,10.15-30.29,18.36-9.59,7.78-20.46,6.33-31.68,2.57-2.2-.4-4.83.37-7.06.54-7.69.61-15.04-1.59-21.34-5.95-.37-.26-.83-1.11-.85-1.52-.03-.48.49-1.39.95-1.67Z"/>
</svg>
